<svg version="1.0" viewBox="0 0 379 361.6" xml:space="preserve" xmlns="http://www.w3.org/2000/svg" xmlns:xlink="http://www.w3.org/1999/xlink"><defs><linearGradient x1="234.2" x2="235.2" y1="168.4" y2="120.4" gradientUnits="userSpaceOnUse"><stop stop-color="#666" offset="0"/><stop stop-color="#666" stop-opacity="0" offset="1"/></linearGradient><linearGradient id="beamGrad" x1="1992" x2="1992" y1="160.9" y2="472.3" gradientTransform="matrix(.3725 0 0 2.685 -544 -890.4)" gradientUnits="userSpaceOnUse"><stop stop-color="#eaffff" offset="0"/><stop stop-color="#7be6e6" stop-opacity=".9" offset=".6"/><stop stop-color="#11c5c5" stop-opacity=".75" offset="1"/></linearGradient><filter id="filter1048764" x="-1.303" y="-.1139" width="3.606" height="1.228"><feGaussianBlur in="SourceGraphic" result="blur" stdDeviation="8.6875225"/><feMerge><feMergeNode in="blur"/><feMergeNode in="SourceGraphic"/></feMerge></filter></defs><flowRoot transform="translate(-66.5 165.5)" fill="#000000" font-family="sans-serif" letter-spacing="0px" word-spacing="0px" style="line-height:0.01%" xml:space="preserve"><flowRegion><rect x="-64.89" y="120.5" width="0" height="27.48"/></flowRegion><flowPara font-size="24px" style="line-height:1.25"> </flowPara></flowRoot><g transform="translate(-66.5 165.5)"><g fill="#2c3ebc"><path d="m346 148.1 5.417 12.5 11.5 24 4 8.5 1.667 2.75 5.917 0.25h71l-9.333-12.5-17-22-7.25-9.5-3-3.75-4.917-0.25h-12.5z"/><path d="m258.5 148.6 0.5 47.5h103l-7.417-15.5-9.5-20-4-8.5-2.167-3.75-5.917-0.25-15.5 0.5h-59"/><path d="m150.5 196.1h103s0.2798-31.84-0.25-47.75l-80.67 0.5-22.08 47.25"/><path d="m66.5 196.1h71.5l5.917-0.25 1.667-3.25 4-8.5 10.5-22.5 5.917-13.5-43 0.5h-13.5l-6 0.0833-3.167 3.417-24.5 31.5-5.917 7.5-3.417 5"/><path d="m331 116.6 2.417 5.5 6.5 14 3.75 7.25 4.333 0.25h56.5l-13.83-18.5-6.333-8.25-4.333-0.25h-49"/><path d="m263 116.6 1 27h73l-2.417-5.5-6.5-14-3.75-7.25-4.333-0.25h-57"/><path d="m175.5 143.6h73.5l0.5-27h-56.5l-4.917 0.25-4.083 7.75-8.5 19"/><path d="m107.5 143.6h57l4.333-0.25 3.25-6.75 9.417-20h-49l-4.5 0.25-5.5 6.75-10.42 13.5-4.583 6.5"/><path d="m319.5 93.64 5.917 12.5 2.75 5.25 3.833 0.25h48l-9.583-13.5-3.417-4.25-4-0.25h-43.5"/><path d="m262.5 93.64 0.5 18h59l-6.417-13-2.667-4.75-3.917-0.25h-46.5"/><path d="m190 111.6h60v-18h-47.5l-3.833 0.25-2.25 4.75-6.417 13"/><path d="m132 111.6h48l3.833-0.25 2.75-5.75 5.917-12h-43.5l-3.917 0.25-4 5.25-9.083 12.5"/></g><g fill="#5edede" fill-opacity=".9255"><path d="m346.5 1.309c-7.441 2.274-3.558 13.98 4 11.67 7.618-2.328 3.736-14.03-4-11.67"/><path d="m192-14.19c-12.46 3.809-6.29 22.42 6 18.67 11.87-3.626 5.914-22.31-6-18.67"/><path d="m156.5-25.69c-7.666 2.662-3.149 14.5 4.5 12.17 8.151-2.491 3.666-15-4.5-12.17"/><path d="m319-30.19c-7.771 1.835-10.66 11.6-6.333 17.83 2.892 4.164 8.586 5.784 13.33 4.333 7.377-2.254 10.08-11.72 5.833-17.83-2.691-3.875-8.356-5.39-12.83-4.333"/><path d="m357.5-37.69c-7.039 1.76-3.98 12.8 3 10.67 6.556-2.003 3.791-12.36-3-10.67"/><path d="m137.5-61.69c-1.82 0.3792-3.643 0.9969-5 2.333-6.354 6.256-0.1637 17.38 8.5 15.33 10.77-2.543 7.383-19.93-3.5-17.67"/><path d="m173.5-64.19c-12.16 2.872-7.191 22.05 5 19.17 12.71-3.001 7.573-22.14-5-19.17"/><path d="m339.5-70.19c-8.617 2.034-6.288 15.88 2.5 14.17 9.38-1.824 6.873-16.38-2.5-14.17"/><path d="m155-99.69c-2.238 0.4352-4.503 1.366-5.833 3.333-3.978 5.884 1.854 14.47 8.833 12.33 8.747-2.673 6.338-17.48-3-15.67"/></g><path d="m244.5-165.2c-4.849 0.9429-10.08 0.3547-15 0.8333-14 1.362-28.77 3.089-42 8.417-5.483 2.208-14.87 5.667-15.83 12.58-0.5576 4.015 3.404 7.381 6.333 9.333 7.364 4.909 16.01 6.961 24.5 9.083 11.44 2.86 23.34 3.45 35 4.583 3.963 0.3853 8.037-0.3852 12 0 9.396 0.9135 19.12 0.4121 28.5-0.5 11.3-1.099 22.32-1.682 33.5-4.167 8.66-1.924 17.91-4.748 25-10.17 5.088-3.887 6.496-9.138 1.5-13.75-1.534-1.416-3.202-2.676-5-3.75-2.79-1.666-5.961-2.818-9-4-14.44-5.616-30.82-6.691-46-8.167-2.146-0.2087-4.354 0.2087-6.5 0-5.803-0.5642-11.63-0.5-17.5-0.5-3.067 0-6.488-0.419-9.5 0.1667" fill="#01325e"/><path d="m256-34.36 8 183h-16z" fill="url(#beamGrad)" filter="url(#filter1048764)"/><path d="m338-130.9c-11.83 8.094-27.96 11.14-42 12.5-30.66 2.981-62.65 4.578-93-2.167-6.416-1.426-12.9-2.959-19-5.5-3.162-1.317-6.158-3.63-9.5-4.333 1.801 4.889 4.185 9.773 6.417 14.5 4.431 9.383 8.074 19.13 12.5 28.5 12.42 26.31 22.88 53.56 35 80 3.11 6.786 5.891 13.72 9 20.5 3.77 8.226 7.124 16.98 17.58 18 15.95 1.551 20.86-16.96 25.67-28.5 2.593-6.223 5.242-12.42 7.925-18.61 11.28-26 23.17-51.73 34.07-77.89 3.826-9.182 7.667-18.5 11.92-27.5 0.9754-2.065 4.512-7.647 3.417-9.5" fill="#01325e"/></g></svg>
