<?xml version="1.0" encoding="UTF-8" standalone="no"?>
<svg
   inkscape:export-ydpi="100"
   inkscape:export-xdpi="100"
   inkscape:export-filename="20251104_Logo.png"
   sodipodi:docname="20251104_Logo.svg"
   inkscape:version="1.3.2 (091e20e, 2023-11-25, custom)"
   id="svg2985"
   height="512"
   width="512"
   version="1.0"
   xml:space="preserve"
   xmlns:inkscape="http://www.inkscape.org/namespaces/inkscape"
   xmlns:sodipodi="http://sodipodi.sourceforge.net/DTD/sodipodi-0.dtd"
   xmlns:xlink="http://www.w3.org/1999/xlink"
   xmlns="http://www.w3.org/2000/svg"
   xmlns:svg="http://www.w3.org/2000/svg"
   xmlns:rdf="http://www.w3.org/1999/02/22-rdf-syntax-ns#"
   xmlns:cc="http://creativecommons.org/ns#"
   xmlns:dc="http://purl.org/dc/elements/1.1/"><metadata
     id="metadata3057"><rdf:RDF><cc:Work
         rdf:about=""><dc:format>image/svg+xml</dc:format><dc:type
           rdf:resource="http://purl.org/dc/dcmitype/StillImage" /></cc:Work></rdf:RDF></metadata><sodipodi:namedview
     pagecolor="#ffffff"
     bordercolor="#666666"
     borderopacity="1"
     objecttolerance="10"
     gridtolerance="10"
     guidetolerance="10"
     inkscape:pageopacity="0"
     inkscape:pageshadow="2"
     inkscape:window-width="1920"
     inkscape:window-height="991"
     id="namedview3055"
     showgrid="false"
     inkscape:snap-grids="false"
     inkscape:zoom="0.42383868"
     inkscape:cx="316.15803"
     inkscape:cy="310.25956"
     inkscape:window-x="-9"
     inkscape:window-y="-9"
     inkscape:window-maximized="1"
     inkscape:current-layer="g4192"
     units="px"
     inkscape:showpageshadow="2"
     inkscape:pagecheckerboard="0"
     inkscape:deskcolor="#d1d1d1"
     inkscape:export-bgcolor="#ffffff00"><inkscape:grid
       type="xygrid"
       id="grid3059"
       originx="0"
       originy="0"
       spacingx="1"
       spacingy="1"
       units="px"
       visible="false" /></sodipodi:namedview><defs
     id="defs2987"><linearGradient
       inkscape:collect="always"
       id="linearGradient1055"><stop
         style="stop-color:#666666;stop-opacity:1;"
         offset="0"
         id="stop1051" /><stop
         style="stop-color:#666666;stop-opacity:0;"
         offset="1"
         id="stop1053" /></linearGradient><clipPath
       id="clipEmfPath1"
       clipPathUnits="userSpaceOnUse"><path
         id="path858"
         d="M 0,0 H 224.53795 V 147.25795 H 0 Z"
         inkscape:connector-curvature="0" /></clipPath><pattern
       y="0"
       x="0"
       height="6"
       width="6"
       patternUnits="userSpaceOnUse"
       id="EMFhbasepattern" /><linearGradient
       inkscape:collect="always"
       xlink:href="#linearGradient1055"
       id="linearGradient903"
       gradientUnits="userSpaceOnUse"
       x1="234.22559"
       y1="168.36331"
       x2="235.22559"
       y2="120.36331" /><clipPath
       clipPathUnits="userSpaceOnUse"
       id="clipPath918"><rect
         style="opacity:1;fill:#ff6600;fill-opacity:1;stroke:none;stroke-width:3.12625;stroke-miterlimit:4;stroke-dasharray:none;stroke-dashoffset:0;stroke-opacity:1"
         id="rect920"
         width="139"
         height="344"
         x="785"
         y="-188.68033" /></clipPath><clipPath
       clipPathUnits="userSpaceOnUse"
       id="clipPath991"><rect
         style="opacity:1;fill:#6f916f;fill-opacity:1;stroke:none;stroke-width:2.48332;stroke-miterlimit:4;stroke-dasharray:none;stroke-dashoffset:0;stroke-opacity:1"
         id="rect993"
         width="295.38501"
         height="218.99283"
         x="579.61499"
         y="-240.68033" /></clipPath><clipPath
       clipPathUnits="userSpaceOnUse"
       id="clipPath995"><rect
         y="-0.68032998"
         x="579.61499"
         height="218.99283"
         width="295.38501"
         id="rect997"
         style="opacity:1;fill:#6f916f;fill-opacity:1;stroke:none;stroke-width:2.48332;stroke-miterlimit:4;stroke-dasharray:none;stroke-dashoffset:0;stroke-opacity:1" /></clipPath><radialGradient
       id="impactGlow"
       cx="284.4636"
       cy="2938.8646"
       r="247.48334"
       gradientTransform="matrix(2.8123106,0,0,0.3555795,-537.39088,-550.75416)"
       fx="284.4636"
       fy="2938.8646"
       gradientUnits="userSpaceOnUse"><stop
         offset="0%"
         stop-color="#ffffff"
         stop-opacity="1"
         id="stop4" /><stop
         offset="40%"
         stop-color="#bffffa"
         stop-opacity="0.9"
         id="stop5" /><stop
         offset="100%"
         stop-color="#11c5c5"
         stop-opacity="0"
         id="stop6" /></radialGradient><filter
       id="softGlow"
       x="-0.10502396"
       y="-0.31507187"
       width="1.2100479"
       height="1.6301437"><feGaussianBlur
         in="SourceGraphic"
         stdDeviation="10.502396"
         result="blur"
         id="feGaussianBlur6" /><feMerge
         id="feMerge7"><feMergeNode
           in="blur"
           id="feMergeNode6" /><feMergeNode
           in="SourceGraphic"
           id="feMergeNode7" /></feMerge></filter><linearGradient
       id="beamGrad"
       x1="1991.9482"
       y1="160.91984"
       x2="1991.9482"
       y2="472.32955"
       gradientTransform="matrix(0.37249964,0,0,2.6845663,-544.00001,-890.35774)"
       gradientUnits="userSpaceOnUse"><stop
         offset="0%"
         stop-color="#eaffff"
         stop-opacity="1"
         id="stop1" /><stop
         offset="60%"
         stop-color="#7be6e6"
         stop-opacity="0.9"
         id="stop2" /><stop
         offset="100%"
         stop-color="#11c5c5"
         stop-opacity="0.75"
         id="stop3" /></linearGradient><filter
       id="filter2"
       x="-2.4000001"
       y="-0.60000002"
       width="5.8000002"
       height="2.2"><feGaussianBlur
         in="SourceGraphic"
         stdDeviation="20"
         result="blur"
         id="feGaussianBlur1" /><feMerge
         id="feMerge2"><feMergeNode
           in="blur"
           id="feMergeNode1" /><feMergeNode
           in="SourceGraphic"
           id="feMergeNode2" /></feMerge></filter><filter
       id="filter1048764"
       x="-1.3031284"
       y="-0.11393447"
       width="3.6062569"
       height="1.2278689"><feGaussianBlur
         in="SourceGraphic"
         stdDeviation="8.6875225"
         result="blur"
         id="feGaussianBlur1048763" /><feMerge
         id="feMerge1048764"><feMergeNode
           in="blur"
           id="feMergeNode1048763" /><feMergeNode
           in="SourceGraphic"
           id="feMergeNode1048764" /></feMerge></filter></defs><flowRoot
     style="font-style:normal;font-weight:normal;line-height:0.01%;font-family:sans-serif;letter-spacing:0px;word-spacing:0px;fill:#000000;fill-opacity:1;stroke:none"
     id="flowRoot3035"
     xml:space="preserve"
     transform="translate(0,240.68033)"><flowRegion
       id="flowRegion3037"
       style="font-family:sans-serif"><rect
         y="120.5454"
         x="-64.885498"
         height="27.480917"
         width="0"
         id="rect3039"
         style="font-family:sans-serif" /></flowRegion><flowPara
       id="flowPara3041"
       style="font-size:24px;line-height:1.25;font-family:sans-serif"> </flowPara></flowRoot><g
     id="g4192"
     transform="translate(0,240.68033)"><g
       style="fill:url(#linearGradient903);fill-opacity:1;stroke:none;stroke-opacity:1"
       id="g899"
       transform="matrix(-2.5843434,0,0,-2.1951459,814.26213,483.5951)" /><g
       style="fill:#ffffff;fill-opacity:1;stroke:#ffffff;stroke-opacity:1"
       id="g880"
       transform="matrix(-2.8738065,0,0,-0.58585541,1576.765,71.28396)" /><path
       style="fill:#2c3ebc;stroke:none;fill-opacity:1"
       d="m 346,148.14226 5.41666,12.5 11.5,24 4,8.5 1.66668,2.75 5.91666,0.25 h 15 56 l -9.33334,-12.5 -17,-22 -7.25,-9.5 -3,-3.75 -4.91666,-0.25 h -12.5 z"
       id="path1048763" /><path
       style="fill:#2c3ebc;stroke:none;fill-opacity:1"
       d="m 258.5,148.64226 0.5,47.5 h 103 l -7.41666,-15.5 -9.5,-20 -4,-8.5 -2.16668,-3.75 -5.91666,-0.25 -15.5,0.5 h -59"
       id="path1048762" /><path
       style="fill:#2c3ebc;stroke:none;fill-opacity:1"
       d="m 150.5,196.14226 h 103 c 0,0 0.27979,-31.83944 -0.25,-47.75 l -80.66667,0.5 -22.08333,47.25"
       id="path1048761"
       sodipodi:nodetypes="ccccc" /><path
       style="fill:#2c3ebc;stroke:none;fill-opacity:1"
       d="m 66.5,196.14227 h 56.5 15 l 5.91667,-0.25 1.66666,-3.25 4,-8.5 10.5,-22.5 5.91667,-13.5 -43,0.5 h -13.5 l -6,0.0833 -3.16666,3.41669 -5.83334,7.5 -18.66667,24 -5.91667,7.5 -3.41666,5"
       id="path1048760" /><path
       style="fill:#2c3ebc;stroke:none;fill-opacity:1"
       d="m 331,116.64227 2.41666,5.5 6.5,14 3.75,7.25 4.33334,0.25 h 12 44.5 l -13.83334,-18.5 -6.33332,-8.25 -4.33334,-0.25 h -10 -39"
       id="path1048759" /><path
       style="fill:#2c3ebc;stroke:none;fill-opacity:1"
       d="m 263,116.64227 1,27 h 73 l -2.41666,-5.5 -6.5,-14 -3.75,-7.25 -4.33334,-0.25 h -12 -45"
       id="path1048758" /><path
       style="fill:#2c3ebc;stroke:none;fill-opacity:1"
       d="M 175.5,143.64227 H 249 l 0.5,-27 H 205 193 l -4.91667,0.25 -4.08333,7.75 -8.5,19"
       id="path1048757" /><path
       style="fill:#2c3ebc;stroke:none;fill-opacity:1"
       d="m 107.5,143.64227 h 45 12 l 4.33333,-0.25 3.25,-6.75 9.41667,-20 H 143 132.5 l -4.5,0.25 -5.5,6.75 -10.41666,13.5 -4.58334,6.5"
       id="path1048756" /><path
       style="fill:#2c3ebc;stroke:none;fill-opacity:1"
       d="m 319.5,93.642264 5.91666,12.500006 2.75,5.25 3.83334,0.25 h 10 38 l -9.58334,-13.500006 -3.41666,-4.25 -4,-0.25 h -9.5 -34"
       id="path1048755" /><path
       style="fill:#2c3ebc;stroke:none;fill-opacity:1"
       d="m 262.5,93.642264 0.5,18.000006 h 59 l -6.41666,-13.000006 -2.66668,-4.75 -3.91666,-0.25 h -10 -36.5"
       id="path1048754" /><path
       style="fill:#2c3ebc;stroke:none;fill-opacity:1"
       d="m 190,111.64227 h 60 v -5.5 -12.500006 h -37.5 -10 l -3.83333,0.25 -2.25,4.75 L 190,111.64227"
       id="path1048753" /><path
       style="fill:#2c3ebc;stroke:none;fill-opacity:1"
       d="m 132,111.64227 h 38 10 l 3.83333,-0.25 2.75,-5.75 L 192.5,93.642264 H 158 149 l -3.91667,0.25 -4,5.25 L 132,111.64227"
       id="path1048752" /><path
       style="fill:#5edede;stroke:none;fill-opacity:0.9254902"
       d="m 346.5,1.3089195 c -7.44116,2.2736817 -3.5575,13.9758915 4,11.6666875 7.61783,-2.327637 3.73596,-14.0304266 -4,-11.6666875"
       id="path1048751" /><path
       style="fill:#5edede;stroke:none;fill-opacity:0.9254902"
       d="m 192,-14.19108 c -12.46434,3.808502 -6.28983,22.4218745 6,18.6666865 11.86702,-3.62600708 5.91377,-22.3069755 -6,-18.6666865"
       id="path1048750" /><path
       style="fill:#5edede;stroke:none;fill-opacity:0.9254902"
       d="m 156.5,-25.69108 c -7.66617,2.661835 -3.14915,14.503906 4.5,12.166687 8.1508,-2.490509 3.66638,-15.002197 -4.5,-12.166687"
       id="path1048749" /><path
       style="fill:#5edede;stroke:none;fill-opacity:0.9254902"
       d="m 319,-30.19108 c -7.77133,1.8349 -10.66357,11.59787 -6.33334,17.833344 2.89169,4.1640314 8.58557,5.7840264 13.33334,4.3333424 7.37726,-2.2541194 10.08151,-11.7160024 5.83334,-17.8333424 -2.69131,-3.875458 -8.35608,-5.390473 -12.83334,-4.333344"
       id="path1048748" /><path
       style="fill:#5edede;stroke:none;fill-opacity:0.9254902"
       d="m 357.5,-37.69108 c -7.03934,1.759827 -3.97977,12.799378 3,10.666687 6.55637,-2.003326 3.79083,-12.36441 -3,-10.666687"
       id="path1048747" /><path
       style="fill:#5edede;stroke:none;fill-opacity:0.9254902"
       d="m 137.5,-61.69108 c -1.81996,0.379151 -3.64262,0.996857 -5,2.333344 -6.35424,6.2565 -0.16368,17.378906 8.5,15.333343 10.77214,-2.543396 7.38336,-19.934051 -3.5,-17.666687"
       id="path1048746" /><path
       style="fill:#5edede;stroke:none;fill-opacity:0.9254902"
       d="m 173.5,-64.19108 c -12.16464,2.872193 -7.19095,22.045075 5,19.166687 12.71072,-3.001129 7.57253,-22.135193 -5,-19.166687"
       id="path1048745" /><path
       style="fill:#5edede;stroke:none;fill-opacity:0.9254902"
       d="m 339.5,-70.19108 c -8.61658,2.034454 -6.28812,15.875488 2.5,14.166687 9.38037,-1.823944 6.87338,-16.379822 -2.5,-14.166687"
       id="path1048744" /><path
       style="fill:#5edede;stroke:none;fill-opacity:0.9254902"
       d="m 155,-99.691078 c -2.23813,0.43518 -4.50342,1.36618 -5.83333,3.33334 -3.97813,5.88434 1.85388,14.465944 8.83333,12.333345 8.74663,-2.672546 6.3383,-17.482447 -3,-15.666685"
       id="path1048743" /><path
       style="fill:#01325e;stroke:none"
       d="m 244.5,-165.19107 c -4.84909,0.94287 -10.07736,0.35473 -15,0.83334 -14.00435,1.36157 -28.77306,3.08908 -42,8.41666 -5.48271,2.20834 -14.87273,5.66693 -15.83333,12.58334 -0.55765,4.01514 3.40418,7.38059 6.33333,9.33335 7.36378,4.90917 16.01228,6.96139 24.5,9.08331 11.43852,2.85962 23.34048,3.44977 35,4.58334 3.96255,0.38526 8.03745,-0.38525 12,0 9.39578,0.91348 19.11838,0.41211 28.5,-0.5 11.30133,-1.09875 22.32025,-1.68225 33.5,-4.16665 8.65958,-1.92438 17.90582,-4.7475 25,-10.16669 5.08826,-3.88687 6.49594,-9.13837 1.5,-13.75 -1.53418,-1.41617 -3.20212,-2.67627 -5,-3.75 -2.78967,-1.66605 -5.96094,-2.81815 -9,-4 -14.43985,-5.61551 -30.82199,-6.69098 -46,-8.16666 -2.14639,-0.20868 -4.35364,0.20868 -6.5,0 -5.80267,-0.56415 -11.62631,-0.5 -17.5,-0.5 -3.06685,0 -6.48782,-0.41904 -9.5,0.16666"
       id="path1048720" /><g
       id="g1048677"
       transform="translate(479.92795,-29.841622)" /><path
       d="m 256,-34.35774 8,183.00041 h -16 z"
       fill="url(#beamGrad)"
       filter="url(#softGlow)"
       id="path10"
       style="opacity:1;fill:url(#beamGrad);filter:url(#filter1048764)"
       sodipodi:nodetypes="cccc" /><path
       style="fill:#01325e;stroke:none"
       d="m 338,-130.85773 c -11.83011,8.09427 -27.96494,11.13547 -42,12.5 -30.65674,2.98056 -62.64757,4.57837 -93,-2.16665 -6.41608,-1.42582 -12.90251,-2.95942 -19,-5.5 -3.16187,-1.31742 -6.15834,-3.62986 -9.5,-4.33335 1.80122,4.88901 4.18452,9.7731 6.41667,14.5 4.43086,9.383 8.07393,19.127132 12.5,28.499994 12.42284,26.307251 22.88176,53.560058 35,79.9999994 3.11046,6.78649892 5.89145,13.7176815 9,20.4999996 3.77039,8.226319 7.12445,16.983155 17.58333,18.000001 15.94873,1.550537 20.85677,-16.956109 25.66666,-28.500001 2.59285,-6.2229133 5.24177,-12.4216022 7.92521,-18.605355 11.28217,-25.998795 23.17448,-51.733573 34.07479,-77.894646 3.8258,-9.182032 7.66674,-18.500172 11.91668,-27.499992 0.97535,-2.06543 4.51175,-7.64679 3.41666,-9.5"
       id="path1048742"
       sodipodi:nodetypes="cssscsssssssssc" /></g></svg>
